<svg aria-hidden="true" style="position: absolute; width: 0; height: 0; overflow: hidden;" version="1.1" xmlns="http://www.w3.org/2000/svg" xmlns:xlink="http://www.w3.org/1999/xlink">
    <defs>
        <symbol id="icon-film" viewBox="0 0 32 32">
            <path fill="none" stroke-linejoin="round" stroke-linecap="round" stroke-miterlimit="4" stroke-width="2.6667" d="M26.427 2.667h-20.853c-1.605 0-2.907 1.301-2.907 2.907v0 20.853c0 1.605 1.301 2.907 2.907 2.907v0h20.853c1.605 0 2.907-1.301 2.907-2.907v0-20.853c0-1.605-1.301-2.907-2.907-2.907v0zM9.333 2.667v26.667M22.667 2.667v26.667M2.667 16h26.667M2.667 9.333h6.667M2.667 22.667h6.667M22.667 22.667h6.667M22.667 9.333h6.667"></path>
        </symbol>
        <symbol id="icon-search" viewBox="0 0 32 32">
            <path fill="none" stroke="#fff" style="stroke: var(--color1, #fff)" stroke-linejoin="round" stroke-linecap="round" stroke-miterlimit="4" stroke-width="2.6667" d="M14.667 25.333c5.891 0 10.667-4.776 10.667-10.667s-4.776-10.667-10.667-10.667v0c-5.891 0-10.667 4.776-10.667 10.667s4.776 10.667 10.667 10.667v0zM28 28l-5.8-5.8"></path>
        </symbol>
        <symbol id="icon-arrow-left" viewBox="0 0 32 32">
            <path stroke-linejoin="round" stroke-linecap="round" stroke-miterlimit="4" stroke-width="2.666" d="M25.334 16h-18.668M16 25.334l-9.334-9.334 9.334-9.334"></path>
        </symbol>
        <symbol id="icon-arrow-right" viewBox="0 0 32 32">
            <path stroke-linejoin="round" stroke-linecap="round" stroke-miterlimit="4" stroke-width="2.666" d="M6.666 16h18.668M16 25.334l9.334-9.334-9.334-9.334"></path>
        </symbol>
        <symbol id="icon-close-btn" viewBox="0 0 32 32">
            <path d="M26.667 7.303l-1.97-1.97-7.808 7.808-7.808-7.808-1.97 1.97 7.808 7.808-7.808 7.808 1.97 1.97 7.808-7.808 7.808 7.808 1.97-1.97-7.808-7.808 7.808-7.808z"></path>
        </symbol>
        <!-- YouTube -->
        <symbol id="exit_door_open" viewBox="0 0 32 32">
             <path d="M24 20v-4h-10v-4h10v-4l6 6zM22 18v8h-10v6l-12-6v-26h22v10h-2v-8h-16l8 4v18h8v-6z"></path>
        </symbol>
        <symbol id="play" viewBox="0 0 32 32">
            <path d="M16 32c-8.836 0-16-7.164-16-16s7.164-16 16-16 16 7.164 16 16c0 8.836-7.164 16-16 16zM16 4c-6.626 0-12 5.374-12 12s5.374 12 12 12 12-5.374 12-12-5.374-12-12-12zM12 10l10 6-10 6v-12z"></path>
        </symbol>
        <symbol id="exit_door_closed" viewBox="0 0 32 32">
            <path d="M24 2.688h-16q-1.125 0-1.907 0.781t-0.781 1.844v24h21.375v-24q0-1.063-0.781-1.844t-1.907-0.781zM20.688 18q-0.875 0-1.437-0.593t-0.563-1.407 0.563-1.407 1.437-0.593q0.812 0 1.407 0.593t0.593 1.407-0.593 1.407-1.407 0.593z"></path>
        </symbol>
        <symbol id="arrow" viewBox="0 0 32 32">
            <path fill="#ffb400" style="fill: var(--color1, #ffb400)" d="M20 6l-10 10 10 10 2-2-8-8 8-8z"></path>
            <path fill="#070c2b" style="fill: var(--color2, #070c2b)" d="M18.333 11.667l-2-2 3.667-3.667 2 2zM18.333 20.333l3.667 3.667-2 2-3.667-3.667z"></path>
        </symbol>
    </defs>
</svg>